<svg data-v-423bf9ae="" xmlns="http://www.w3.org/2000/svg" viewBox="0 0 453.4969674660815 180" class="iconAbove"><!----><!----><!----><g data-v-423bf9ae="" id="fe6eb89e-dc72-4e9a-ae73-61536f31041c" fill="black" transform="matrix(5.258545206169178,0,0,5.258545206169178,-4.259421168296427,107.15702160538898)"><path d="M1.02 13.43L0.81 10.29L1.33 10.29L1.33 10.29Q1.43 10.92 1.70 11.42L1.70 11.42L1.70 11.42Q1.97 11.93 2.39 12.28L2.39 12.28L2.39 12.28Q2.80 12.63 3.34 12.82L3.34 12.82L3.34 12.82Q3.88 13.01 4.51 13.01L4.51 13.01L4.51 13.01Q5.54 13.01 6.15 12.52L6.15 12.52L6.15 12.52Q6.75 12.03 6.75 11.19L6.75 11.19L6.75 11.19Q6.75 10.84 6.63 10.54L6.63 10.54L6.63 10.54Q6.51 10.25 6.23 9.97L6.23 9.97L6.23 9.97Q5.95 9.70 5.48 9.44L5.48 9.44L5.48 9.44Q5.01 9.17 4.30 8.86L4.30 8.86L4.30 8.86Q3.43 8.48 2.84 8.13L2.84 8.13L2.84 8.13Q2.25 7.78 1.90 7.41L1.90 7.41L1.90 7.41Q1.55 7.03 1.41 6.60L1.41 6.60L1.41 6.60Q1.26 6.17 1.26 5.63L1.26 5.63L1.26 5.63Q1.26 4.98 1.49 4.44L1.49 4.44L1.49 4.44Q1.72 3.89 2.14 3.49L2.14 3.49L2.14 3.49Q2.56 3.09 3.14 2.88L3.14 2.88L3.14 2.88Q3.71 2.66 4.40 2.66L4.40 2.66L4.40 2.66Q5.01 2.66 5.54 2.86L5.54 2.86L5.54 2.86Q6.08 3.05 6.62 3.49L6.62 3.49L6.99 2.86L7.31 2.86L7.46 5.64L6.94 5.64L6.94 5.64Q6.61 4.49 5.97 3.93L5.97 3.93L5.97 3.93Q5.33 3.37 4.44 3.37L4.44 3.37L4.44 3.37Q3.58 3.37 3.08 3.79L3.08 3.79L3.08 3.79Q2.58 4.21 2.58 4.93L2.58 4.93L2.58 4.93Q2.58 5.26 2.69 5.54L2.69 5.54L2.69 5.54Q2.80 5.81 3.05 6.05L3.05 6.05L3.05 6.05Q3.30 6.30 3.71 6.54L3.71 6.54L3.71 6.54Q4.12 6.79 4.72 7.06L4.72 7.06L4.72 7.06Q5.75 7.52 6.44 7.92L6.44 7.92L6.44 7.92Q7.13 8.32 7.53 8.71L7.53 8.71L7.53 8.71Q7.94 9.11 8.11 9.55L8.11 9.55L8.11 9.55Q8.27 10.00 8.27 10.54L8.27 10.54L8.27 10.54Q8.27 11.24 7.99 11.83L7.99 11.83L7.99 11.83Q7.71 12.42 7.21 12.84L7.21 12.84L7.21 12.84Q6.71 13.26 6.01 13.49L6.01 13.49L6.01 13.49Q5.31 13.72 4.47 13.72L4.47 13.72L4.47 13.72Q3.67 13.72 3.03 13.50L3.03 13.50L3.03 13.50Q2.39 13.27 1.74 12.74L1.74 12.74L1.34 13.43L1.02 13.43ZM12.12 9.56L12.12 11.34L12.12 11.34Q12.12 11.93 12.15 12.26L12.15 12.26L12.15 12.26Q12.18 12.60 12.30 12.78L12.30 12.78L12.30 12.78Q12.42 12.95 12.64 13.01L12.64 13.01L12.64 13.01Q12.87 13.06 13.27 13.09L13.27 13.09L13.27 13.58L9.55 13.58L9.55 13.09L9.55 13.09Q9.95 13.06 10.19 13.01L10.19 13.01L10.19 13.01Q10.43 12.95 10.56 12.78L10.56 12.78L10.56 12.78Q10.68 12.61 10.72 12.30L10.72 12.30L10.72 12.30Q10.75 11.98 10.75 11.45L10.75 11.45L10.75 9.66L10.75 9.66Q10.75 8.86 10.73 8.33L10.73 8.33L10.73 8.33Q10.71 7.80 10.65 7.60L10.65 7.60L10.65 7.60Q10.61 7.42 10.56 7.31L10.56 7.31L10.56 7.31Q10.50 7.21 10.37 7.15L10.37 7.15L10.37 7.15Q10.25 7.08 10.04 7.06L10.04 7.06L10.04 7.06Q9.84 7.04 9.52 7.04L9.52 7.04L9.52 6.55L11.80 6.02L11.98 7.42L12.05 7.42L12.05 7.42Q12.68 6.71 13.38 6.36L13.38 6.36L13.38 6.36Q14.07 6.02 14.91 6.02L14.91 6.02L14.91 6.02Q15.79 6.02 16.39 6.38L16.39 6.38L16.39 6.38Q17.00 6.73 17.23 7.41L17.23 7.41L17.29 7.41L17.29 7.41Q17.81 6.75 18.55 6.38L18.55 6.38L18.55 6.38Q19.29 6.02 20.13 6.02L20.13 6.02L20.13 6.02Q20.79 6.02 21.33 6.24L21.33 6.24L21.33 6.24Q21.87 6.45 22.15 6.83L22.15 6.83L22.15 6.83Q22.40 7.15 22.50 7.68L22.50 7.68L22.50 7.68Q22.61 8.20 22.61 9.11L22.61 9.11L22.61 11.34L22.61 11.34Q22.61 11.91 22.64 12.25L22.64 12.25L22.64 12.25Q22.68 12.59 22.79 12.77L22.79 12.77L22.79 12.77Q22.90 12.95 23.13 13.01L23.13 13.01L23.13 13.01Q23.37 13.06 23.77 13.09L23.77 13.09L23.77 13.58L20.05 13.58L20.05 13.09L20.05 13.09Q20.44 13.08 20.68 13.01L20.68 13.01L20.68 13.01Q20.92 12.95 21.04 12.78L21.04 12.78L21.04 12.78Q21.17 12.60 21.20 12.29L21.20 12.29L21.20 12.29Q21.24 11.98 21.24 11.45L21.24 11.45L21.24 9.69L21.24 9.69Q21.24 8.89 21.15 8.34L21.15 8.34L21.15 8.34Q21.07 7.78 20.87 7.44L20.87 7.44L20.87 7.44Q20.68 7.10 20.36 6.94L20.36 6.94L20.36 6.94Q20.05 6.79 19.60 6.79L19.60 6.79L19.60 6.79Q18.98 6.79 18.45 7.13L18.45 7.13L18.45 7.13Q17.91 7.48 17.60 8.05L17.60 8.05L17.60 8.05Q17.53 8.19 17.48 8.32L17.48 8.32L17.48 8.32Q17.43 8.46 17.40 8.62L17.40 8.62L17.40 8.62Q17.37 8.78 17.37 9.00L17.37 9.00L17.37 9.00Q17.36 9.23 17.36 9.56L17.36 9.56L17.36 11.34L17.36 11.34Q17.36 11.91 17.39 12.25L17.39 12.25L17.39 12.25Q17.42 12.59 17.54 12.77L17.54 12.77L17.54 12.77Q17.65 12.95 17.89 13.01L17.89 13.01L17.89 13.01Q18.13 13.06 18.54 13.09L18.54 13.09L18.54 13.58L14.81 13.58L14.81 13.09L14.81 13.09Q15.20 13.06 15.44 13.01L15.44 13.01L15.44 13.01Q15.68 12.95 15.80 12.78L15.80 12.78L15.80 12.78Q15.92 12.61 15.95 12.30L15.95 12.30L15.95 12.30Q15.99 11.98 15.99 11.45L15.99 11.45L15.99 9.69L15.99 9.69Q15.99 8.88 15.90 8.32L15.90 8.32L15.90 8.32Q15.82 7.77 15.63 7.43L15.63 7.43L15.63 7.43Q15.44 7.08 15.13 6.94L15.13 6.94L15.13 6.94Q14.83 6.79 14.38 6.79L14.38 6.79L14.38 6.79Q13.75 6.79 13.20 7.13L13.20 7.13L13.20 7.13Q12.64 7.48 12.36 8.05L12.36 8.05L12.36 8.05Q12.29 8.19 12.24 8.32L12.24 8.32L12.24 8.32Q12.19 8.46 12.17 8.62L12.17 8.62L12.17 8.62Q12.14 8.78 12.13 9.00L12.13 9.00L12.13 9.00Q12.12 9.23 12.12 9.56L12.12 9.56ZM28.94 10.54L28.94 9.44L28.94 9.44Q28.14 9.74 27.59 10.04L27.59 10.04L27.59 10.04Q27.03 10.33 26.70 10.63L26.70 10.63L26.70 10.63Q26.36 10.92 26.21 11.21L26.21 11.21L26.21 11.21Q26.07 11.51 26.07 11.82L26.07 11.82L26.07 11.82Q26.07 12.28 26.38 12.57L26.38 12.57L26.38 12.57Q26.68 12.87 27.19 12.87L27.19 12.87L27.19 12.87Q27.55 12.87 27.87 12.68L27.87 12.68L27.87 12.68Q28.18 12.50 28.42 12.19L28.42 12.19L28.42 12.19Q28.66 11.87 28.80 11.45L28.80 11.45L28.80 11.45Q28.94 11.02 28.94 10.54L28.94 10.54ZM26.92 9.72L28.94 8.83L28.94 8.26L28.94 8.26Q28.94 6.55 27.48 6.55L27.48 6.55L27.48 6.55Q27.24 6.55 27.08 6.59L27.08 6.59L27.08 6.59Q26.91 6.64 26.80 6.73L26.80 6.73L26.80 6.73Q26.68 6.83 26.59 7.01L26.59 7.01L26.59 7.01Q26.50 7.20 26.42 7.46L26.42 7.46L26.42 7.46Q26.26 7.87 26.12 8.00L26.12 8.00L26.12 8.00Q25.97 8.13 25.69 8.13L25.69 8.13L25.69 8.13Q24.99 8.13 24.99 7.43L24.99 7.43L24.99 7.43Q24.99 6.76 25.70 6.39L25.70 6.39L25.70 6.39Q26.42 6.02 27.73 6.02L27.73 6.02L27.73 6.02Q29.13 6.02 29.72 6.52L29.72 6.52L29.72 6.52Q30.31 7.01 30.31 8.20L30.31 8.20L30.31 11.34L30.31 11.34Q30.31 12.94 30.94 12.94L30.94 12.94L30.94 12.94Q31.14 12.94 31.32 12.89L31.32 12.89L31.32 12.89Q31.50 12.84 31.63 12.63L31.63 12.63L31.82 12.96L31.82 12.96Q31.65 13.29 31.21 13.50L31.21 13.50L31.21 13.50Q30.76 13.72 30.27 13.72L30.27 13.72L30.27 13.72Q29.65 13.72 29.35 13.33L29.35 13.33L29.35 13.33Q29.05 12.94 29.05 12.22L29.05 12.22L28.98 12.22L28.98 12.22Q28.62 12.91 27.97 13.31L27.97 13.31L27.97 13.31Q27.33 13.71 26.54 13.71L26.54 13.71L26.54 13.71Q25.66 13.71 25.16 13.26L25.16 13.26L25.16 13.26Q24.65 12.81 24.65 12.05L24.65 12.05L24.65 12.05Q24.65 11.72 24.77 11.41L24.77 11.41L24.77 11.41Q24.89 11.10 25.16 10.82L25.16 10.82L25.16 10.82Q25.42 10.54 25.86 10.27L25.86 10.27L25.86 10.27Q26.29 10.00 26.92 9.72L26.92 9.72ZM34.92 10.88L34.92 11.35L34.92 11.35Q34.92 11.93 34.94 12.26L34.94 12.26L34.94 12.26Q34.97 12.60 35.09 12.78L35.09 12.78L35.09 12.78Q35.21 12.95 35.43 13.01L35.43 13.01L35.43 13.01Q35.66 13.06 36.06 13.09L36.06 13.09L36.06 13.58L32.34 13.58L32.34 13.09L32.34 13.09Q32.75 13.08 32.98 13.01L32.98 13.01L32.98 13.01Q33.22 12.95 33.35 12.78L33.35 12.78L33.35 12.78Q33.47 12.61 33.51 12.30L33.51 12.30L33.51 12.30Q33.54 11.98 33.54 11.45L33.54 11.45L33.54 9.81L33.54 9.81Q33.54 8.86 33.52 8.33L33.52 8.33L33.52 8.33Q33.50 7.80 33.38 7.55L33.38 7.55L33.38 7.55Q33.26 7.29 33.01 7.25L33.01 7.25L33.01 7.25Q32.76 7.20 32.31 7.20L32.31 7.20L32.31 6.71L34.76 6.17L34.96 7.91L35.01 7.91L35.01 7.91Q35.20 7.49 35.47 7.14L35.47 7.14L35.47 7.14Q35.74 6.79 36.06 6.54L36.06 6.54L36.06 6.54Q36.39 6.30 36.74 6.16L36.74 6.16L36.74 6.16Q37.09 6.02 37.45 6.02L37.45 6.02L37.45 6.02Q37.90 6.02 38.16 6.24L38.16 6.24L38.16 6.24Q38.42 6.45 38.42 6.82L38.42 6.82L38.42 6.82Q38.42 7.15 38.21 7.34L38.21 7.34L38.21 7.34Q38.00 7.53 37.60 7.53L37.60 7.53L37.60 7.53Q37.38 7.53 37.23 7.48L37.23 7.48L37.23 7.48Q37.07 7.42 36.95 7.36L36.95 7.36L36.95 7.36Q36.83 7.29 36.73 7.24L36.73 7.24L36.73 7.24Q36.62 7.18 36.50 7.18L36.50 7.18L36.50 7.18Q36.12 7.18 35.74 7.67L35.74 7.67L35.74 7.67Q35.36 8.15 35.15 8.89L35.15 8.89L35.15 8.89Q35.04 9.30 34.98 9.81L34.98 9.81L34.98 9.81Q34.92 10.32 34.92 10.88L34.92 10.88ZM39.89 7.04L39.05 7.04L39.05 6.52L39.05 6.52Q39.79 6.09 40.21 5.66L40.21 5.66L40.21 5.66Q40.63 5.22 40.85 4.62L40.85 4.62L41.26 4.62L41.26 6.38L43.13 6.38L43.13 7.04L41.26 7.04L41.26 11.30L41.26 11.30Q41.26 11.79 41.31 12.12L41.31 12.12L41.31 12.12Q41.36 12.46 41.47 12.66L41.47 12.66L41.47 12.66Q41.58 12.87 41.76 12.95L41.76 12.95L41.76 12.95Q41.94 13.03 42.22 13.03L42.22 13.03L42.22 13.03Q42.57 13.03 42.82 12.89L42.82 12.89L42.82 12.89Q43.06 12.74 43.30 12.39L43.30 12.39L43.65 12.66L43.65 12.66Q43.46 13.17 42.97 13.45L42.97 13.45L42.97 13.45Q42.49 13.72 41.78 13.72L41.78 13.72L41.78 13.72Q40.85 13.72 40.37 13.28L40.37 13.28L40.37 13.28Q39.89 12.84 39.89 12.01L39.89 12.01L39.89 7.04ZM53.37 13.58L48.33 13.58L48.33 13.05L48.33 13.05Q48.87 13.03 49.20 12.96L49.20 12.96L49.20 12.96Q49.53 12.89 49.71 12.73L49.71 12.73L49.71 12.73Q49.88 12.56 49.95 12.25L49.95 12.25L49.95 12.25Q50.01 11.94 50.01 11.45L50.01 11.45L50.01 4.93L50.01 4.93Q50.01 4.44 49.96 4.14L49.96 4.14L49.96 4.14Q49.91 3.84 49.76 3.66L49.76 3.66L49.76 3.66Q49.62 3.49 49.34 3.42L49.34 3.42L49.34 3.42Q49.06 3.36 48.61 3.33L48.61 3.33L48.61 2.80L52.79 2.80L52.79 2.80Q54.68 2.80 55.73 3.47L55.73 3.47L55.73 3.47Q56.78 4.14 56.78 5.36L56.78 5.36L56.78 5.36Q56.78 6.29 56.20 6.87L56.20 6.87L56.20 6.87Q55.62 7.46 54.36 7.84L54.36 7.84L54.36 7.90L54.36 7.90Q54.80 7.94 55.12 7.99L55.12 7.99L55.12 7.99Q55.44 8.05 55.69 8.13L55.69 8.13L55.69 8.13Q55.94 8.20 56.16 8.32L56.16 8.32L56.16 8.32Q56.38 8.43 56.59 8.57L56.59 8.57L56.59 8.57Q57.83 9.45 57.83 10.78L57.83 10.78L57.83 10.78Q57.83 11.52 57.42 12.16L57.42 12.16L57.42 12.16Q57.01 12.80 56.27 13.16L56.27 13.16L56.27 13.16Q56.03 13.29 55.78 13.36L55.78 13.36L55.78 13.36Q55.52 13.44 55.19 13.49L55.19 13.49L55.19 13.49Q54.85 13.54 54.41 13.56L54.41 13.56L54.41 13.56Q53.97 13.58 53.37 13.58L53.37 13.58ZM53.41 12.98L53.41 12.98L53.41 12.98Q55.94 12.98 55.94 10.81L55.94 10.81L55.94 10.81Q55.94 9.23 54.64 8.60L54.64 8.60L54.64 8.60Q54.42 8.50 54.21 8.43L54.21 8.43L54.21 8.43Q54.00 8.36 53.72 8.32L53.72 8.32L53.72 8.32Q53.44 8.29 53.05 8.27L53.05 8.27L53.05 8.27Q52.67 8.26 52.11 8.26L52.11 8.26L51.48 8.26L51.48 11.38L51.48 11.38Q51.48 12.24 51.93 12.61L51.93 12.61L51.93 12.61Q52.37 12.98 53.41 12.98ZM51.48 7.56L52.26 7.56L52.26 7.56Q52.70 7.56 52.99 7.55L52.99 7.55L52.99 7.55Q53.28 7.53 53.49 7.50L53.49 7.50L53.49 7.50Q53.70 7.46 53.87 7.40L53.87 7.40L53.87 7.40Q54.03 7.34 54.19 7.22L54.19 7.22L54.19 7.22Q54.64 6.94 54.83 6.55L54.83 6.55L54.83 6.55Q55.02 6.16 55.02 5.53L55.02 5.53L55.02 5.53Q55.02 4.42 54.48 3.94L54.48 3.94L54.48 3.94Q53.94 3.46 52.79 3.46L52.79 3.46L51.72 3.46L51.72 3.46Q51.48 3.46 51.48 3.70L51.48 3.70L51.48 7.56ZM61.64 10.88L61.64 11.35L61.64 11.35Q61.64 11.93 61.67 12.26L61.67 12.26L61.67 12.26Q61.70 12.60 61.82 12.78L61.82 12.78L61.82 12.78Q61.94 12.95 62.16 13.01L62.16 13.01L62.16 13.01Q62.38 13.06 62.79 13.09L62.79 13.09L62.79 13.58L59.07 13.58L59.07 13.09L59.07 13.09Q59.47 13.08 59.71 13.01L59.71 13.01L59.71 13.01Q59.95 12.95 60.07 12.78L60.07 12.78L60.07 12.78Q60.20 12.61 60.23 12.30L60.23 12.30L60.23 12.30Q60.27 11.98 60.27 11.45L60.27 11.45L60.27 9.81L60.27 9.81Q60.27 8.86 60.25 8.33L60.25 8.33L60.25 8.33Q60.23 7.80 60.11 7.55L60.11 7.55L60.11 7.55Q59.99 7.29 59.74 7.25L59.74 7.25L59.74 7.25Q59.49 7.20 59.04 7.20L59.04 7.20L59.04 6.71L61.49 6.17L61.68 7.91L61.74 7.91L61.74 7.91Q61.92 7.49 62.20 7.14L62.20 7.14L62.20 7.14Q62.47 6.79 62.79 6.54L62.79 6.54L62.79 6.54Q63.11 6.30 63.46 6.16L63.46 6.16L63.46 6.16Q63.81 6.02 64.18 6.02L64.18 6.02L64.18 6.02Q64.62 6.02 64.88 6.24L64.88 6.24L64.88 6.24Q65.14 6.45 65.14 6.82L65.14 6.82L65.14 6.82Q65.14 7.15 64.93 7.34L64.93 7.34L64.93 7.34Q64.72 7.53 64.33 7.53L64.33 7.53L64.33 7.53Q64.11 7.53 63.95 7.48L63.95 7.48L63.95 7.48Q63.80 7.42 63.68 7.36L63.68 7.36L63.68 7.36Q63.56 7.29 63.45 7.24L63.45 7.24L63.45 7.24Q63.35 7.18 63.22 7.18L63.22 7.18L63.22 7.18Q62.85 7.18 62.47 7.67L62.47 7.67L62.47 7.67Q62.09 8.15 61.88 8.89L61.88 8.89L61.88 8.89Q61.77 9.30 61.70 9.81L61.70 9.81L61.70 9.81Q61.64 10.32 61.64 10.88L61.64 10.88ZM70.10 10.54L70.10 9.44L70.10 9.44Q69.30 9.74 68.75 10.04L68.75 10.04L68.75 10.04Q68.19 10.33 67.86 10.63L67.86 10.63L67.86 10.63Q67.52 10.92 67.38 11.21L67.38 11.21L67.38 11.21Q67.23 11.51 67.23 11.82L67.23 11.82L67.23 11.82Q67.23 12.28 67.54 12.57L67.54 12.57L67.54 12.57Q67.84 12.87 68.35 12.87L68.35 12.87L68.35 12.87Q68.71 12.87 69.03 12.68L69.03 12.68L69.03 12.68Q69.34 12.50 69.58 12.19L69.58 12.19L69.58 12.19Q69.82 11.87 69.96 11.45L69.96 11.45L69.96 11.45Q70.10 11.02 70.10 10.54L70.10 10.54ZM68.08 9.72L70.10 8.83L70.10 8.26L70.10 8.26Q70.10 6.55 68.64 6.55L68.64 6.55L68.64 6.55Q68.40 6.55 68.24 6.59L68.24 6.59L68.24 6.59Q68.07 6.64 67.96 6.73L67.96 6.73L67.96 6.73Q67.84 6.83 67.75 7.01L67.75 7.01L67.75 7.01Q67.66 7.20 67.58 7.46L67.58 7.46L67.58 7.46Q67.42 7.87 67.28 8.00L67.28 8.00L67.28 8.00Q67.13 8.13 66.85 8.13L66.85 8.13L66.85 8.13Q66.15 8.13 66.15 7.43L66.15 7.43L66.15 7.43Q66.15 6.76 66.86 6.39L66.86 6.39L66.86 6.39Q67.58 6.02 68.89 6.02L68.89 6.02L68.89 6.02Q70.29 6.02 70.88 6.52L70.88 6.52L70.88 6.52Q71.47 7.01 71.47 8.20L71.47 8.20L71.47 11.34L71.47 11.34Q71.47 12.94 72.10 12.94L72.10 12.94L72.10 12.94Q72.30 12.94 72.48 12.89L72.48 12.89L72.48 12.89Q72.66 12.84 72.79 12.63L72.79 12.63L72.98 12.96L72.98 12.96Q72.81 13.29 72.37 13.50L72.37 13.50L72.37 13.50Q71.92 13.72 71.43 13.72L71.43 13.72L71.43 13.72Q70.81 13.72 70.51 13.33L70.51 13.33L70.51 13.33Q70.21 12.94 70.21 12.22L70.21 12.22L70.14 12.22L70.14 12.22Q69.78 12.91 69.13 13.31L69.13 13.31L69.13 13.31Q68.49 13.71 67.70 13.71L67.70 13.71L67.70 13.71Q66.82 13.71 66.32 13.26L66.32 13.26L66.32 13.26Q65.81 12.81 65.81 12.05L65.81 12.05L65.81 12.05Q65.81 11.72 65.93 11.41L65.93 11.41L65.93 11.41Q66.05 11.10 66.32 10.82L66.32 10.82L66.32 10.82Q66.58 10.54 67.02 10.27L67.02 10.27L67.02 10.27Q67.45 10.00 68.08 9.72L68.08 9.72ZM76.16 6.02L76.16 11.35L76.16 11.35Q76.16 11.90 76.21 12.23L76.21 12.23L76.21 12.23Q76.26 12.56 76.40 12.75L76.40 12.75L76.40 12.75Q76.54 12.94 76.79 13.01L76.79 13.01L76.79 13.01Q77.04 13.08 77.46 13.09L77.46 13.09L77.46 13.58L73.44 13.58L73.44 13.09L73.44 13.09Q73.86 13.08 74.13 13.00L74.13 13.00L74.13 13.00Q74.40 12.92 74.54 12.75L74.54 12.75L74.54 12.75Q74.69 12.57 74.74 12.26L74.74 12.26L74.74 12.26Q74.79 11.94 74.79 11.45L74.79 11.45L74.79 9.66L74.79 9.66Q74.79 8.85 74.77 8.32L74.77 8.32L74.77 8.32Q74.75 7.80 74.69 7.60L74.69 7.60L74.69 7.60Q74.62 7.28 74.37 7.16L74.37 7.16L74.37 7.16Q74.12 7.04 73.42 7.04L73.42 7.04L73.42 6.55L76.16 6.02ZM74.55 3.18L74.55 3.18L74.55 3.18Q74.55 2.81 74.80 2.56L74.80 2.56L74.80 2.56Q75.05 2.31 75.42 2.31L75.42 2.31L75.42 2.31Q75.78 2.31 76.03 2.56L76.03 2.56L76.03 2.56Q76.29 2.81 76.29 3.18L76.29 3.18L76.29 3.18Q76.29 3.54 76.03 3.79L76.03 3.79L76.03 3.79Q75.78 4.05 75.42 4.05L75.42 4.05L75.42 4.05Q75.05 4.05 74.80 3.79L74.80 3.79L74.80 3.79Q74.55 3.54 74.55 3.18ZM80.77 9.51L80.77 11.38L80.77 11.38Q80.77 11.96 80.79 12.29L80.79 12.29L80.79 12.29Q80.82 12.61 80.94 12.79L80.94 12.79L80.94 12.79Q81.06 12.96 81.29 13.02L81.29 13.02L81.29 13.02Q81.52 13.08 81.93 13.10L81.93 13.10L81.93 13.58L78.26 13.58L78.26 13.10L78.26 13.10Q78.65 13.08 78.88 13.02L78.88 13.02L78.88 13.02Q79.11 12.96 79.24 12.80L79.24 12.80L79.24 12.80Q79.37 12.63 79.40 12.32L79.40 12.32L79.40 12.32Q79.44 12.01 79.44 11.48L79.44 11.48L79.44 9.62L79.44 9.62Q79.44 7.95 79.35 7.59L79.35 7.59L79.35 7.59Q79.31 7.41 79.25 7.29L79.25 7.29L79.25 7.29Q79.18 7.17 79.06 7.10L79.06 7.10L79.06 7.10Q78.93 7.04 78.74 7.02L78.74 7.02L78.74 7.02Q78.54 7 78.23 7L78.23 7L78.23 6.55L80.47 6.02L80.64 7.41L80.70 7.41L80.70 7.41Q81.23 6.75 81.94 6.38L81.94 6.38L81.94 6.38Q82.66 6.02 83.50 6.02L83.50 6.02L83.50 6.02Q84.14 6.02 84.67 6.23L84.67 6.23L84.67 6.23Q85.20 6.44 85.48 6.80L85.48 6.80L85.48 6.80Q85.72 7.13 85.82 7.64L85.82 7.64L85.82 7.64Q85.92 8.15 85.92 9.04L85.92 9.04L85.92 11.38L85.92 11.38Q85.92 11.96 85.95 12.29L85.95 12.29L85.95 12.29Q85.99 12.61 86.10 12.79L86.10 12.79L86.10 12.79Q86.21 12.96 86.44 13.02L86.44 13.02L86.44 13.02Q86.67 13.08 87.05 13.10L87.05 13.10L87.05 13.58L83.43 13.58L83.43 13.10L83.43 13.10Q83.82 13.09 84.05 13.03L84.05 13.03L84.05 13.03Q84.28 12.96 84.40 12.80L84.40 12.80L84.40 12.80Q84.52 12.63 84.55 12.31L84.55 12.31L84.55 12.31Q84.59 12.00 84.59 11.48L84.59 11.48L84.59 9.63L84.59 9.63Q84.59 8.83 84.50 8.29L84.50 8.29L84.50 8.29Q84.42 7.74 84.23 7.41L84.23 7.41L84.23 7.41Q84.04 7.07 83.73 6.92L83.73 6.92L83.73 6.92Q83.43 6.78 82.99 6.78L82.99 6.78L82.99 6.78Q82.36 6.78 81.84 7.10L81.84 7.10L81.84 7.10Q81.31 7.43 81.02 8.01L81.02 8.01L81.02 8.01Q80.95 8.15 80.90 8.27L80.90 8.27L80.90 8.27Q80.85 8.40 80.82 8.57L80.82 8.57L80.82 8.57Q80.79 8.74 80.78 8.95L80.78 8.95L80.78 8.95Q80.77 9.17 80.77 9.51L80.77 9.51Z"></path></g><!----><g data-v-423bf9ae="" id="af2539ec-0cba-4533-96c3-1e82e0194aa3" transform="matrix(1.0868111504448785,0,0,1.0868111504448785,171.74473429518693,-0.23894260335429607)" stroke="none" fill="black"><g clip-rule="evenodd"><path d="M12.983 10.59l17.018 88.223-5.872-59.049 29.021-1.892-.054-9.883L64.549 1 53.622 18.977z"></path><path d="M59.389 54.548l5.16-53.541-8.74 39.716-19.612 1.045 1.57 20.462-7.766 36.583 12.057-39.899z"></path><path d="M62.8 67.182l.549-10.453-15.979 3.755-.032 11.797-17.337 26.532 21.68-27.616zM65.711 62.394l14.841-4.731 1.509-12.532-15.899 2.095zM72.07 44.502l10.988-1.417 1.581-10.278-8.079-.373L64.549 1l8.43 30.967z"></path><path d="M87.413 31.294l1.256-9.506-9.544-2.694L64.549 1l14.483 22.437-.422 7z"></path></g></g><!----></svg>